<svg width="100px" height="100px" viewBox="0 0 100 100" version="1.1" xmlns="http://www.w3.org/2000/svg" xmlns:xlink="http://www.w3.org/1999/xlink" style="fill-rule:evenodd;clip-rule:evenodd;stroke-linejoin:round;stroke-miterlimit:2"><path d="M0 0h100v100H0z" style="fill:none"/><path d="M51.064 70.229c1.98 1.748 5.656 4.298 7.224 4.419 2.16.167 5.393-4.061 5.393-4.061a1.56 1.56 0 0 1 2.375 2.02s-5.254 5.838-7.972 5.905c-2.717.066-5.597-3.512-8.186-3.499s-4.662 3.736-7.347 3.576-8.911-6.543-8.911-6.543a1.56 1.56 0 0 1 2.361-2.036s4.306 4.729 6.364 4.686c1.512-.032 4.456-2.656 6.034-4.469-1.773-.562-4.477-2.157-4.458-4.844.019-2.633 1.231-3.121 5.933-3.166 4.953-.047 5.301.884 5.239 3.37-.065 2.604-2.428 4.154-4.049 4.642M69.862 50.876c.095.574-2.927 2.844-4.925 3.277-1.999.434-6.842.248-7.066-.677-.223-.925 3.598-2.642 5.858-3.165 1.758-.406 6.038-.009 6.133.565M34.873 54.321c-1.802-.454-4.434-2.65-4.499-3.462-.076-.964 4.473-1.174 6.115-.669 2.18.669 5.776 2.672 5.482 3.594s-5.165 1.025-7.098.537M36.126 43.647c-.389-2.047 2.148-3.433 4.36-3.23 2.552.234 3.121 3.664 1.338 5.14-.785.65-5.202.702-5.698-1.91M57.834 41.361c2.628-.895 5.062-.028 4.663 2.557-.316 2.047-1.97 2.478-3.993 2.347-2.721-.176-3.553-3.922-.67-4.904"/><path d="M38.47 22.621c2.869.875 4.68-1.03 11.441-.967 7.331.068 8.654 1.895 11.8.855 2.693-.891 14.112-13.405 20.236-12.35 4.313.744 5.431 7.251 5.896 12.282.402 4.341-1.623 12.468-1.65 13.487-.055 2.038 7.843 25.51-.754 38.397-6.278 9.409-19.935 16.747-35.651 16.85-18.001.118-28.601-9.177-34.544-18.204-9.804-14.894-1.98-35.541-1.819-37.431.108-1.26-1.679-7.304-1.539-13.265.142-6.039 2.295-11.039 5.99-11.882 5.54-1.263 18.105 11.47 20.594 12.228M17.912 34.619c-.142 3.568-8.906 24.705.758 37.124 6.196 7.963 14.27 16.777 31.056 16.949 14.045.144 26.26-8.19 32.286-16.8 8.965-12.812-.223-34.105-.395-36.735-.183-2.795 2.737-6.738 2.483-12.165-.247-5.254-.977-10.675-3.001-11.198-4.099-1.059-13.972 14.3-17.027 15.344-3.557 1.216-7.198-2.387-14.275-2.397-7.024-.011-11.07 3.074-14.323 2.01-2.566-.839-12.687-15.334-17.218-13.955-2.348.713-3.329 6.335-3.155 9.483.36 6.493 2.922 9.567 2.811 12.34"/></svg>