<svg width="100px" height="100px" viewBox="0 0 100 100" version="1.1" xmlns="http://www.w3.org/2000/svg" xmlns:xlink="http://www.w3.org/1999/xlink" style="fill-rule:evenodd;clip-rule:evenodd;stroke-linejoin:round;stroke-miterlimit:2"><path d="M0 0h100v100H0z" style="fill:none"/><path d="M51.527 76.545s-.502 2.875.39 3.771c.91.914 5.074 1.716 5.074 1.716a1.5 1.5 0 0 1-.961 2.842l-5.987-2.025-.003-.001-5.395 2.258a1.501 1.501 0 0 1-1.158-2.768s3.866-1.004 4.694-1.964.273-3.797.273-3.797c-1.711-.497-4.2-1.235-4.2-1.235-.298-.089-1.014-.887-1.103-1.787-.095-.955.452-2.017.685-2.164a1.5 1.5 0 0 1 1.499-.059s3.275 3.093 4.791 3.086c1.515-.007 4.303-3.129 4.303-3.129a1.5 1.5 0 0 1 1.561.042c.232.15.836 1.052.654 2.113-.154.9-.8 1.61-1.077 1.709 0 0-2.399.838-4.04 1.392"/><path d="M29.3 45.99c2.809-4.166 4.936-17.408-1.097-23.526-5.058-5.13-8.033-11.527-5.693-16.023 2.352-4.519 12.106-4.3 16.029 1.676 2.356 3.59 4.052 8.373 5.176 12.424 1.241 4.468 1.466 14.337 2.925 17.349.578 1.194 5.972 1.564 6.855.186 1.579-2.463.435-7.146 1.636-15.556C56.235 14.788 66.59.539 73.132 2.16c5.953 1.475 1.218 14.839-2.64 22.501-2.746 5.454-4.831 16.088-2.68 20.575.912 1.904 12.882 18.603 6.897 35.85-2.013 5.8-11.002 16.826-25.687 16.676-14.854-.152-22.357-12.244-24.358-16.599-6.676-14.528 2.233-31.61 4.636-35.173m39.484 7.424c-1.143-2.916-2.199-4.772-2.752-5.763-2.527-4.522-1.721-17.385 1.781-24.34 3.04-6.039 7.026-16.078 3.899-17.404-2.993-1.27-12.618 10.086-13.611 17.038-1.723 12.061.368 14.69-1.934 17.608-1.343 1.702-10.704 1.349-11.867-.088-2.577-3.185-1.979-13.734-3.475-19.122-1.041-3.749-1.974-6.891-4.241-10.156-1.982-2.856-8.42-5.19-10.549-2.709-2.632 3.067 1.816 8.929 4.585 12.209 5.399 6.393 4.452 22.915.77 27.455-.656.809-1.639 2.66-2.608 5.162 0 0 5.737 5.576 5.365 6.835s-7.596.724-7.596.724c-1.271 6.066-1.527 13.191 1.305 19.001 1.917 3.931 9.858 15.029 21.613 15.119 12.24.094 20.576-11.509 21.621-15.334 1.824-6.677 1.292-13.276.009-18.772 0 0-6.827.652-7.201-.546-.375-1.198 4.886-6.917 4.886-6.917"/></svg>