<svg width="100px" height="100px" viewBox="0 0 100 100" version="1.1" xmlns="http://www.w3.org/2000/svg" xmlns:xlink="http://www.w3.org/1999/xlink" style="fill-rule:evenodd;clip-rule:evenodd;stroke-linejoin:round;stroke-miterlimit:2"><path d="M0 0h100v100H0z" style="fill:none"/><path d="M51.508 75.264s-1.302 4.632.02 5.416c1.323.783 7.916-.715 7.916-.715a1.48 1.48 0 0 1 1.624 1.313 1.48 1.48 0 0 1-1.313 1.624l-9.739 1.057-9.63-1.016a1.478 1.478 0 0 1 .359-2.931s6.529 1.418 7.831.641c1.301-.778-.02-5.304-.02-5.304-2.423-.293-5.325-1.246-6.454-1.855-.736-.396-.823-1.465-.306-2.507.455-.919 1.379-1.523 2.243-1.38 1.347.223 4.095 3.339 5.992 3.32 1.898-.018 4.079-2.997 5.392-3.339.793-.207 1.82.245 2.335.682.505.43.841 1.936.421 2.451-.473.579-4.016 2.041-6.671 2.543"/><path d="M12.062 40.399c-4.154-2.178-8.563-6.468-8.377-7.943.149-1.174 2.885-3.002 6.77-4.288 1.726-.571 4.005-.72 5.903-.712.32-3.68 4.516-4.945 4.516-4.945s-1.262-3.836 1.796-6.643C25.935 12.869 29.272 14 29.272 14s.017-3.22 4.923-4.994c4.578-1.655 8.358 1.002 8.358 1.002s2.329-3.415 7.254-3.461c5.845-.054 8.053 3.408 8.053 3.408s2.518-1.981 7.21-.784c3.817.973 5.006 5.12 5.006 5.12s3.074-.652 5.819 1.932c3.059 2.882 2.5 6.842 2.5 6.842s2.852 1.321 3.201 4.35c2.137-.142 5.879.187 9.116 1.432 2.952 1.134 5.4 2.914 5.449 3.852.044.823-5.182 8.496-9.104 8.433 1.16.93 2.202 1.515 2.8 4.298.746 3.469-.551 5.668-.551 5.668s3.023 1.839 2.875 6.246c-.172 5.138-3.094 6.594-3.094 6.594 1.509 1.373 1.626 4.68.895 7.226-.984 3.42-4.577 4.891-4.577 4.891s1.254 4.543-.666 7.099c-2.734 3.64-6.74 3.608-6.74 3.608s-.765 4.011-4.884 5.235c-4.874 1.448-8.911.342-10.205-.771-2.192 1.538-7.415 3.459-12.893 3.442-5.499-.018-9.747-1.051-13.326-3.429-1.313.762-3.591 1.899-7.277 1.28-6.219-1.045-7.18-5.69-7.18-5.69s-4.232.073-6.984-2.895c-2.949-3.179-1.536-7.76-1.536-7.76s-3.207-1.03-4.526-4.232c-1.712-4.158 1.183-7.606 1.183-7.606S6.6 61.115 6.689 57.461c.108-4.5 3.278-6.312 3.278-6.312s-1.507-2.347-.975-5.874c.425-2.812 1.714-3.966 3.07-4.876m4.571-9.971c-4.477.212-8.104 1.364-8.299 2.783s3.819 4.837 7.129 5.73c2.307.622 5.049.743 6.812.731-.454-2.338.252-5.342.252-5.342s-4.257-.793-5.894-3.902M26.12 42.48c-.028 3.437-1.724 10.932-1.615 17.348.044 2.565 2.86 31.354 25.943 31.521 18.317.133 23.433-25.02 23.777-30.816.29-4.89-1.493-14.382-2.061-18.203-.853.003-1.477-.112-1.477-.112s1.101 3.785-1.334 5.298c-2.049 1.273-4.316.128-4.316.128s.624 2.692-2.353 3.948c-2.049.864-4.102-.484-4.102-.484s-.767 2.911-3.986 3.029c-2.225.081-3.464-.565-4.61-2.077-.071.099-1.861 2.293-4.555 1.912-3.711-.525-4.327-3.588-4.327-3.588s-2.668 1.231-4.745.341c-2.381-1.02-2.428-3.192-2.428-3.192s-2.807.836-4.849-.586c-2.224-1.55-1.287-4.356-1.287-4.356s-.747.013-1.675-.111m50.771-3.417c2.247.082 5.27.07 7.928-.357 3.936-.633 6.595-3.96 6.593-5.317-.002-1.458-5.74-3.81-9.913-3.137-1.335 3.846-5.271 4.635-5.271 4.635s.995 2.158.663 4.176m5.863 3.288s-4.637.42-7.519-.243c.702 3.908 1.7 11.992 1.397 17.365-.136 2.407-.961 19.916-10.343 29.596.786.751 4.166 1.018 6.3-.102 2.755-1.446 2.101-3.611 3.368-4.63 1.252-1.006 4.053-.289 5.977-3.137 1.955-2.893-.263-4.617.391-6.457.692-1.947 4.251-1.523 4.941-4.561.87-3.828-1.556-4.256-1.278-6.367.285-2.159 3.206-1.897 3.045-6.378-.166-4.588-2.282-4.769-2.515-5.959-.304-1.543 1.199-1.326.296-5.2-.869-3.73-4.06-3.927-4.06-3.927M34.09 89.286c-10.664-10.261-12.4-27.342-12.433-31.349-.052-6.266 1.049-12.489 1.293-15.516-1.077.112-3.236.444-6.853-.385-1.09.416-2.801 1.225-3.466 3.716-.845 3.166.571 3.289.434 5.351-.131 1.977-2.889 2.374-2.857 6.075.037 4.247 2.482 4.355 2.927 6.603.496 2.502-2.543 3.097-.927 6.847 1.536 3.564 3.802 2.425 4.675 4.254.874 1.828-1.541 3.852.943 6.959 2.665 3.335 5.519 1.751 6.838 2.967 1.166 1.076.243 3.329 4.673 4.908 1.36.484 3.768-.104 4.753-.43M23.762 23.777c-.719 1.849-3.434 1.12-3.391 4.737.044 3.738 3.951 2.785 4.99 4.491 1.038 1.706-2.145 3.148.169 6.01 1.352 1.673 4.031.146 4.967.992.936.847-1.261 2.937.905 4.257 1.508.918 2.788-.481 3.911.322 1.124.804.136 2.642 2.661 3.726 1.894.813 2.455-.929 3.901-.458 1.446.47 1.117 3.015 3.663 3.196 2.403.171 2.813-2.122 4.218-2.156 1.405-.033 2.241 2.599 5.069 2.214 2.832-.385 1.958-2.449 3.168-3.063.894-.454 2.245.8 3.73.406 1.931-.513.695-2.377 1.712-3.201s2.509 1.156 4.069-.23c2.313-2.055-.022-3.66.817-4.628.839-.967 2.662.003 4.26-1.548 2.459-2.385.081-4.162 1.113-5.632s3.953-.656 4.744-3.787c1.017-4.02-2.455-3.848-2.939-5.751-.483-1.904.46-2.852-1.076-4.927-2.193-2.961-3.886-1.093-5.843-2.24s-.857-4.187-4.819-4.902c-4.575-.827-3.976 1.218-6.45.954-2.474-.265-2.816-3.693-7.251-3.798-3.98-.095-4.491 3.485-6.912 3.752s-4.418-2.383-7.886-.803c-4.183 1.907-2.687 3.405-4.718 4.603s-3.462-.672-6.145 1.73c-2.119 1.896.082 3.884-.637 5.734"/><clipPath id="a"><path d="M12.062 40.399c-4.154-2.178-8.563-6.468-8.377-7.943.149-1.174 2.885-3.002 6.77-4.288 1.726-.571 4.005-.72 5.903-.712.32-3.68 4.516-4.945 4.516-4.945s-1.262-3.836 1.796-6.643C25.935 12.869 29.272 14 29.272 14s.017-3.22 4.923-4.994c4.578-1.655 8.358 1.002 8.358 1.002s2.329-3.415 7.254-3.461c5.845-.054 8.053 3.408 8.053 3.408s2.518-1.981 7.21-.784c3.817.973 5.006 5.12 5.006 5.12s3.074-.652 5.819 1.932c3.059 2.882 2.5 6.842 2.5 6.842s2.852 1.321 3.201 4.35c2.137-.142 5.879.187 9.116 1.432 2.952 1.134 5.4 2.914 5.449 3.852.044.823-5.182 8.496-9.104 8.433 1.16.93 2.202 1.515 2.8 4.298.746 3.469-.551 5.668-.551 5.668s3.023 1.839 2.875 6.246c-.172 5.138-3.094 6.594-3.094 6.594 1.509 1.373 1.626 4.68.895 7.226-.984 3.42-4.577 4.891-4.577 4.891s1.254 4.543-.666 7.099c-2.734 3.64-6.74 3.608-6.74 3.608s-.765 4.011-4.884 5.235c-4.874 1.448-8.911.342-10.205-.771-2.192 1.538-7.415 3.459-12.893 3.442-5.499-.018-9.747-1.051-13.326-3.429-1.313.762-3.591 1.899-7.277 1.28-6.219-1.045-7.18-5.69-7.18-5.69s-4.232.073-6.984-2.895c-2.949-3.179-1.536-7.76-1.536-7.76s-3.207-1.03-4.526-4.232c-1.712-4.158 1.183-7.606 1.183-7.606S6.6 61.115 6.689 57.461c.108-4.5 3.278-6.312 3.278-6.312s-1.507-2.347-.975-5.874c.425-2.812 1.714-3.966 3.07-4.876m4.571-9.971c-4.477.212-8.104 1.364-8.299 2.783s3.819 4.837 7.129 5.73c2.307.622 5.049.743 6.812.731-.454-2.338.252-5.342.252-5.342s-4.257-.793-5.894-3.902M26.12 42.48c-.028 3.437-1.724 10.932-1.615 17.348.044 2.565 2.86 31.354 25.943 31.521 18.317.133 23.433-25.02 23.777-30.816.29-4.89-1.493-14.382-2.061-18.203-.853.003-1.477-.112-1.477-.112s1.101 3.785-1.334 5.298c-2.049 1.273-4.316.128-4.316.128s.624 2.692-2.353 3.948c-2.049.864-4.102-.484-4.102-.484s-.767 2.911-3.986 3.029c-2.225.081-3.464-.565-4.61-2.077-.071.099-1.861 2.293-4.555 1.912-3.711-.525-4.327-3.588-4.327-3.588s-2.668 1.231-4.745.341c-2.381-1.02-2.428-3.192-2.428-3.192s-2.807.836-4.849-.586c-2.224-1.55-1.287-4.356-1.287-4.356s-.747.013-1.675-.111m50.771-3.417c2.247.082 5.27.07 7.928-.357 3.936-.633 6.595-3.96 6.593-5.317-.002-1.458-5.74-3.81-9.913-3.137-1.335 3.846-5.271 4.635-5.271 4.635s.995 2.158.663 4.176m5.863 3.288s-4.637.42-7.519-.243c.702 3.908 1.7 11.992 1.397 17.365-.136 2.407-.961 19.916-10.343 29.596.786.751 4.166 1.018 6.3-.102 2.755-1.446 2.101-3.611 3.368-4.63 1.252-1.006 4.053-.289 5.977-3.137 1.955-2.893-.263-4.617.391-6.457.692-1.947 4.251-1.523 4.941-4.561.87-3.828-1.556-4.256-1.278-6.367.285-2.159 3.206-1.897 3.045-6.378-.166-4.588-2.282-4.769-2.515-5.959-.304-1.543 1.199-1.326.296-5.2-.869-3.73-4.06-3.927-4.06-3.927M34.09 89.286c-10.664-10.261-12.4-27.342-12.433-31.349-.052-6.266 1.049-12.489 1.293-15.516-1.077.112-3.236.444-6.853-.385-1.09.416-2.801 1.225-3.466 3.716-.845 3.166.571 3.289.434 5.351-.131 1.977-2.889 2.374-2.857 6.075.037 4.247 2.482 4.355 2.927 6.603.496 2.502-2.543 3.097-.927 6.847 1.536 3.564 3.802 2.425 4.675 4.254.874 1.828-1.541 3.852.943 6.959 2.665 3.335 5.519 1.751 6.838 2.967 1.166 1.076.243 3.329 4.673 4.908 1.36.484 3.768-.104 4.753-.43M23.762 23.777c-.719 1.849-3.434 1.12-3.391 4.737.044 3.738 3.951 2.785 4.99 4.491 1.038 1.706-2.145 3.148.169 6.01 1.352 1.673 4.031.146 4.967.992.936.847-1.261 2.937.905 4.257 1.508.918 2.788-.481 3.911.322 1.124.804.136 2.642 2.661 3.726 1.894.813 2.455-.929 3.901-.458 1.446.47 1.117 3.015 3.663 3.196 2.403.171 2.813-2.122 4.218-2.156 1.405-.033 2.241 2.599 5.069 2.214 2.832-.385 1.958-2.449 3.168-3.063.894-.454 2.245.8 3.73.406 1.931-.513.695-2.377 1.712-3.201s2.509 1.156 4.069-.23c2.313-2.055-.022-3.66.817-4.628.839-.967 2.662.003 4.26-1.548 2.459-2.385.081-4.162 1.113-5.632s3.953-.656 4.744-3.787c1.017-4.02-2.455-3.848-2.939-5.751-.483-1.904.46-2.852-1.076-4.927-2.193-2.961-3.886-1.093-5.843-2.24s-.857-4.187-4.819-4.902c-4.575-.827-3.976 1.218-6.45.954-2.474-.265-2.816-3.693-7.251-3.798-3.98-.095-4.491 3.485-6.912 3.752s-4.418-2.383-7.886-.803c-4.183 1.907-2.687 3.405-4.718 4.603s-3.462-.672-6.145 1.73c-2.119 1.896.082 3.884-.637 5.734"/></clipPath><g clip-path="url(#a)"><path d="m50.116 73.967-7.439-1.903.948-1.118zl6.186-3.155.981.96z"/></g><path d="M30.298 49.668c.266-.536 3.635-2.462 6.885-.226 2.049 1.41 2.247 5.023 1.947 5.396-.301.373-3.921.565-5.738-.326-2.771-1.359-3.392-4.242-3.094-4.844m5.685 2.712s-.392-.645-.697-.844c-.455-.297-1.359-.212-1.359-.212s.354.66.675.86c.382.238 1.381.196 1.381.196M60.752 54.707c-.233-.328.948-4.883 3.179-5.82 2.194-.921 5.232.346 5.366.506.227.273.439 4.083-2.248 5.377-1.689.814-6.065.265-6.297-.063m3.537-2.144s1.188-.166 1.557-.362c.334-.178.625-.809.625-.809s-.731-.249-1.261.066c-.384.228-.921 1.105-.921 1.105"/></svg>